<svg width="20" height="20" viewBox="0 0 20 20" fill="none" xmlns="http://www.w3.org/2000/svg">
<path d="M16.3181 14.9094C16.8526 15.4416 17.3862 15.9747 17.9198 16.5078C18.4959 17.0832 19.0719 17.6587 19.6491 18.2331L16.3181 14.9094ZM16.3181 14.9094L16.1751 14.7976L16.175 14.7976L15.9499 14.6217L16.3181 14.9094ZM14.9124 15.6361L14.5972 15.3441L14.2611 15.6118C10.4887 18.6164 5.21182 17.7876 2.41685 14.3394C-0.284839 11.0052 -0.109744 6.20382 2.80961 3.17163C5.84062 0.0237299 10.5925 -0.389716 14.0352 2.18384L14.0353 2.18386C15.2719 3.10816 16.1924 4.28038 16.7936 5.70301L16.7936 5.70303C17.3971 7.13091 17.581 8.61468 17.371 10.1528C17.1631 11.6726 16.5575 13.0317 15.5559 14.314L15.2211 14.7425L15.6762 15.0402C15.7079 15.0609 15.7379 15.0788 15.7614 15.0925C15.7882 15.1082 15.802 15.1161 15.8187 15.1262C15.8321 15.1343 15.8394 15.1392 15.8425 15.1414C16.4168 15.7129 16.99 16.2856 17.5637 16.8587L17.5664 16.8614C18.1424 17.4369 18.7188 18.0127 19.2964 18.5875L19.2964 18.5876C19.4819 18.7721 19.526 18.9246 19.4886 19.1007L19.4885 19.101C19.4078 19.482 18.961 19.6316 18.664 19.3647L18.6636 19.3643C18.4817 19.2013 18.3157 19.0319 18.1375 18.85C18.0619 18.7728 17.984 18.6934 17.9019 18.6113L17.9018 18.6111C17.4277 18.1376 16.9538 17.6639 16.4799 17.1902C16.0059 16.7165 15.5319 16.2427 15.0577 15.769L15.0578 15.7689L15.0491 15.7606C15.0286 15.741 14.9865 15.7031 14.9536 15.6734C14.9352 15.6568 14.9197 15.6428 14.9124 15.6361ZM1.49095 8.94587L1.99094 8.94806L1.49095 8.94588C1.47287 13.0928 4.80858 16.4454 8.96529 16.4648C13.0883 16.4842 16.4498 13.1258 16.4605 8.98806C16.4713 4.85044 13.1286 1.50667 8.98334 1.50065C4.84831 1.49463 1.50902 4.81268 1.49095 8.94587Z" fill="#3D3D3D" stroke="black"/>
</svg>
